<?xml version="1.0" standalone="no"?>
<!DOCTYPE svg PUBLIC "-//W3C//DTD SVG 20010904//EN"
 "http://www.w3.org/TR/2001/REC-SVG-20010904/DTD/svg10.dtd">
<svg version="1.0" xmlns="http://www.w3.org/2000/svg"
 width="888.000000pt" height="158.000000pt" viewBox="0 0 888.000000 158.000000"
 preserveAspectRatio="xMidYMid meet">

<g transform="translate(0.000000,158.000000) scale(0.100000,-0.100000)"
fill="#1877f2" stroke="none">
<path d="M4310 1549 c-69 -9 -128 -18 -132 -18 -5 -1 -8 -341 -8 -756 l0 -755
130 0 130 0 0 75 c0 80 8 92 31 48 21 -39 124 -111 186 -129 39 -11 85 -15
162 -12 101 3 112 5 183 41 118 58 197 153 244 294 22 64 27 96 27 183 0 123
-12 180 -58 275 -82 169 -230 264 -411 265 -45 0 -104 -7 -135 -16 -64 -19
-141 -66 -163 -100 -9 -13 -21 -24 -26 -24 -6 0 -10 120 -10 325 0 254 -3 325
-12 324 -7 -1 -69 -10 -138 -20z m519 -760 c87 -38 133 -116 139 -239 9 -189
-89 -310 -253 -310 -145 1 -242 103 -253 266 -15 231 167 371 367 283z"/>
<path d="M8005 1559 c-33 -4 -95 -13 -137 -20 l-78 -11 0 -754 0 -754 145 0
145 0 0 235 c0 129 4 235 9 235 5 0 20 -15 35 -34 14 -19 32 -40 39 -48 7 -7
40 -45 73 -84 32 -39 104 -124 159 -187 l100 -116 173 0 c136 -1 172 2 166 12
-7 11 -170 202 -202 236 -7 7 -57 66 -111 130 -54 64 -108 125 -120 135 -11
11 -21 23 -21 27 0 4 30 43 68 86 37 44 87 104 112 133 47 57 111 132 120 140
3 3 27 31 54 63 l48 57 -159 0 -159 0 -89 -106 c-50 -59 -94 -112 -100 -118
-68 -77 -145 -166 -162 -188 -11 -15 -23 -24 -27 -21 -3 3 -6 222 -6 485 0
263 -3 477 -7 477 -5 -1 -35 -5 -68 -10z"/>
<path d="M479 1540 c-91 -12 -156 -40 -206 -89 -73 -73 -103 -165 -103 -321
l0 -90 -85 0 -85 0 0 -120 0 -119 83 -3 82 -3 3 -388 2 -387 145 0 145 0 0
385 0 385 109 0 108 0 17 93 c9 50 19 107 22 125 l6 32 -132 0 -132 0 4 89 c5
140 40 173 191 179 l87 4 0 104 c0 99 -1 105 -22 113 -35 13 -177 20 -239 11z"/>
<path d="M1101 1044 c-154 -41 -281 -176 -327 -345 -71 -268 38 -552 253 -659
64 -32 75 -34 188 -38 159 -5 212 13 303 104 34 34 63 58 63 53 1 -5 3 -13 4
-19 1 -5 3 -35 4 -65 l1 -56 128 3 c70 2 126 6 125 11 -2 4 -3 232 -3 507 l0
500 -125 0 -125 0 -1 -57 c0 -32 -4 -67 -8 -77 -7 -17 -10 -15 -36 18 -88 115
-275 166 -444 120z m310 -251 c87 -34 149 -147 149 -267 -1 -164 -108 -286
-253 -286 -78 0 -127 19 -178 70 -58 58 -81 123 -81 225 1 144 71 243 197 276
39 10 117 2 166 -18z"/>
<path d="M2373 1046 c-91 -22 -175 -71 -239 -138 -78 -81 -109 -136 -134 -233
-74 -291 73 -575 342 -656 95 -29 305 -24 389 9 67 27 177 96 185 116 6 15
-93 189 -105 184 -3 -2 -35 -18 -71 -35 -243 -122 -460 -9 -460 238 0 123 71
231 173 265 77 26 186 16 272 -24 37 -18 69 -31 70 -30 32 40 104 180 99 191
-9 25 -122 84 -204 106 -86 24 -233 27 -317 7z"/>
<path d="M3363 1045 c-178 -48 -307 -180 -353 -361 -36 -141 -23 -289 37 -414
36 -75 140 -176 223 -217 90 -44 135 -52 281 -53 182 0 296 33 415 122 l31 23
-48 84 c-26 46 -50 85 -53 88 -3 3 -36 -11 -74 -31 -86 -44 -144 -58 -247 -58
-88 0 -170 25 -215 65 -34 30 -76 87 -85 115 l-6 22 365 0 364 0 7 65 c17 159
-39 335 -139 435 -92 93 -194 130 -350 129 -56 0 -125 -7 -153 -14z m280 -238
c49 -29 97 -107 97 -159 l0 -28 -235 0 c-229 0 -235 1 -235 20 0 32 38 104 73
137 71 68 211 82 300 30z"/>
<path d="M5752 1044 c-151 -40 -269 -136 -331 -268 -60 -125 -73 -235 -46
-368 40 -195 174 -337 369 -393 46 -14 87 -16 195 -13 126 4 142 7 211 36 202
86 313 263 312 497 -1 250 -152 448 -389 509 -76 20 -248 20 -321 0z m273
-253 c85 -38 135 -122 143 -237 12 -184 -93 -314 -252 -314 -114 0 -207 66
-242 173 -12 36 -15 73 -12 136 5 90 22 138 70 192 66 74 191 95 293 50z"/>
<path d="M6930 1037 c-216 -64 -350 -237 -367 -473 -16 -217 92 -417 273 -506
107 -54 145 -61 301 -56 129 4 143 6 217 38 64 27 94 47 151 104 109 108 155
223 155 386 0 246 -134 433 -361 505 -108 34 -258 34 -369 2z m300 -250 c141
-69 185 -303 84 -449 -79 -114 -261 -131 -371 -35 -108 95 -117 317 -18 436
66 77 202 99 305 48z"/>
</g>
</svg>
